- 
http://www.Speed.Cd      fast  and The Hottest Private Tracker on the net

Please Seed back to make the speed Faster!!!

------------------nfo--------------------------
-[IMG]http://img594.imageshack.us/img594/7136/horriblebossesbluray.jpg[/IMG]



[color=blue][size=4][b]Horrible.Bosses.EXTENDED.2011.BDRip.XVID.AC3.HQ.Hive-CM8[/b][/size][/color]


[b]Thx Hive

CM8 Doing It Right The First Time :D


Source: Bluray

A bit late, but i cant do all at once :P

Video: 720x304 @bitrate 1800 2pass
Audio: English DTS to AC3 5.1 @384
Sample: yes included
Subs: yes english in srt /subs[/b]


[url]http://www.imdb.com/title/tt1499658/[/url]


General
Complete name                    : Horrible.Bosses.EXTENDED.2011.BDRip.XVID.AC3.HQ.Hive-CM8.avi
Format                           : AVI
Format/Info                      : Audio Video Interleave
File size                        : 1.62 GiB
Duration                         : 1h 45mn
Overall bit rate                 : 2 195 Kbps
Writing application              : Nandub v1.0rc2
Writing library                  : Nandub build 1853/release

Video
ID                               : 0
Format                           : MPEG-4 Visual
Format profile                   : Advanced Simple@L5
Format settings, BVOP            : 1
Format settings, QPel            : Yes
Format settings, GMC             : No warppoints
Format settings, Matrix          : Default (H.263)
Muxing mode                      : Packed bitstream
Codec ID                         : XVID
Codec ID/Hint                    : XviD
Duration                         : 1h 45mn
Bit rate                         : 1 801 Kbps
Width                            : 720 pixels
Height                           : 304 pixels
Display aspect ratio             : 2.40:1
Frame rate                       : 23.976 fps
Color space                      : YUV
Chroma subsampling               : 4:2:0
Bit depth                        : 8 bits
Scan type                        : Progressive
Compression mode                 : Lossy
Bits/(Pixel*Frame)               : 0.343
Stream size                      : 1.33 GiB (82%)
Writing library                  : XviD 1.2.1 (UTC 2008-12-04)

Audio
ID                               : 1
Format                           : AC-3
Format/Info                      : Audio Coding 3
Mode extension                   : CM (complete main)
Codec ID                         : 2000
Duration                         : 1h 45mn
Bit rate mode                    : Constant
Bit rate                         : 384 Kbps
Channel(s)                       : 6 channels
Channel positions                : Front: L C R, Side: L R, LFE
Sampling rate                    : 48.0 KHz
Bit depth                        : 16 bits
Compression mode                 : Lossy
Stream size                      : 290 MiB (17%)
Alignment                        : Split accross interleaves
Interleave, duration             : 42 ms (1.00 video frame)
Interleave, preload duration     : 500 ms



Plot:
Three friends conspire to murder their awful bosses who are
standing in the way of their happiness.


Cast:
Kevin Spacey     ...    Dave Harken
Colin Farrell    ...    Bobby Pellitt
Jennifer Aniston ...    Dr. Julia Harris, D.D.S.
Jason Bateman    ...    Nick Hendricks
Charlie Day      ...    Dale Arbus
Jason Sudeikis   ...    Kurt Buckman


[img]http://img69.imageshack.us/img69/5060/71570406.png[/img]
[img]http://img585.imageshack.us/img585/8995/hohoc.png[/img]
[img]http://img204.imageshack.us/img204/6849/hohohoz.png[/img]
[img]http://img31.imageshack.us/img31/421/hohohoho.png[/img]
[img]http://img812.imageshack.us/img812/9748/hohohohohhoohhoo.png[/img]
[img]http://img571.imageshack.us/img571/4703/hohohohoho.png[/img]
[img]http://img831.imageshack.us/img831/6033/hohohohohoho.png[/img]
[img]http://img846.imageshack.us/img846/5368/hohohohohhooho.png[/img]



Greetz

ViSiON,SiC,SANTi,3LT0N,YanKeeS,MAGNET,THC,T0XiC,LKRG,FANTASIA-PLAY,FANTASIA-M,FLAWL3SS,
D2U,WBZ,BHRG,NOVA,Vik,Rapeseed,SAFC,goldadvance,MEMORY100,KaN1vE,Unevano,Pinnz,Wayne
Mr Hive,cedrict wink,and all P2P groups
Great Work Guys :D

LOOKING FOR ANYTHING YOU WANT TO LOOK AND SOUND BETTER

CM8@hushmail.com